# xmcd
#
# Track frame offsets: 
#        183
#        21195
#        38445
#        53608
#        74230
#        95768
#        115193
#        135398
#        151235
#        170773
#        191793
#        205650
#        221213
#        237940
#        256720
#        274323
#        291793
#        307673
#        327153
#        342088
#
# Disc length: 4712 seconds
#
# Revision: 3
# Processed by: cddbd v1.5.2PL0 Copyright (c) Steve Scherf et al.
# Submitted via: ExactAudioCopy v0.99pb3
#
DISCID=24126614
DTITLE=Gladys Knight And The Pips - The Collection
DYEAR=1988
DGENRE=
TTITLE0=Make Yours A Happy Home
TTITLE1=Best Thing That Ever Happened To Me
TTITLE2=I Feel A Song
TTITLE3=Georgia On My Mind
TTITLE4=Midnight Train To Georgia
TTITLE5=On And On
TTITLE6=Where Peaceful Waters Flow
TTITLE7=I've Got To Use My Imagination
TTITLE8=I Can See Clearly Now
TTITLE9=Try To Remember/The Way We Were
TTITLE10=The One And Only
TTITLE11=Come Back And Finish What You Started
TTITLE12=It's A Better Than Good Time
TTITLE13=Sorry Doesn't Always Make It Right
TTITLE14=Be Yourself
TTITLE15=So Sad The Song
TTITLE16=Nobody But You
TTITLE17=Pipe Dreams
TTITLE18=Baby Don't Change Your Mind
TTITLE19=Part Time Love
EXTD=
EXTT0=
EXTT1=
EXTT2=
EXTT3=
EXTT4=
EXTT5=
EXTT6=
EXTT7=
EXTT8=
EXTT9=
EXTT10=
EXTT11=
EXTT12=
EXTT13=
EXTT14=
EXTT15=
EXTT16=
EXTT17=
EXTT18=
EXTT19=
PLAYORDER=
